<svg width="26" height="26" viewBox="0 0 26 26" fill="none" xmlns="http://www.w3.org/2000/svg">
<path d="M21.0002 17H6.3335L4.3335 5H25.0002L21.0002 17Z" fill="white"/>
<path d="M1 1H3.66667L4.33333 5M4.33333 5L6.33333 17H21L25 5H4.33333Z" stroke="white" stroke-width="2" stroke-linecap="round" stroke-linejoin="round"/>
<path d="M7.66683 25C8.40321 25 9.00016 24.4031 9.00016 23.6667C9.00016 22.9303 8.40321 22.3334 7.66683 22.3334C6.93045 22.3334 6.3335 22.9303 6.3335 23.6667C6.3335 24.4031 6.93045 25 7.66683 25Z" stroke="white" stroke-width="2" stroke-linecap="round" stroke-linejoin="round"/>
<path d="M19.6668 25C20.4032 25 21.0002 24.4031 21.0002 23.6667C21.0002 22.9303 20.4032 22.3334 19.6668 22.3334C18.9304 22.3334 18.3335 22.9303 18.3335 23.6667C18.3335 24.4031 18.9304 25 19.6668 25Z" stroke="white" stroke-width="2" stroke-linecap="round" stroke-linejoin="round"/>
</svg>
