<svg width="25" height="24" viewBox="0 0 25 24" fill="none" xmlns="http://www.w3.org/2000/svg">
<g clip-path="url(#clip0_45_282)">
<path d="M10.5891 20.25C10.5891 20.5096 10.5005 20.7633 10.3347 20.9792C10.1688 21.195 9.93302 21.3633 9.65718 21.4626C9.38134 21.5619 9.07782 21.5879 8.78498 21.5373C8.49215 21.4866 8.22317 21.3616 8.01205 21.1781C7.80093 20.9945 7.65716 20.7607 7.59891 20.5061C7.54066 20.2515 7.57056 19.9876 7.68482 19.7477C7.79907 19.5079 7.99256 19.3029 8.24081 19.1587C8.48906 19.0145 8.78092 18.9375 9.07949 18.9375C9.47986 18.9375 9.86383 19.0758 10.1469 19.3219C10.43 19.5681 10.5891 19.9019 10.5891 20.25ZM20.2935 18.9375C19.995 18.9375 19.7031 19.0145 19.4549 19.1587C19.2066 19.3029 19.0131 19.5079 18.8989 19.7477C18.7846 19.9876 18.7547 20.2515 18.813 20.5061C18.8712 20.7607 19.015 20.9945 19.2261 21.1781C19.4372 21.3616 19.7062 21.4866 19.999 21.5373C20.2919 21.5879 20.5954 21.5619 20.8712 21.4626C21.1471 21.3633 21.3828 21.195 21.5487 20.9792C21.7146 20.7633 21.8031 20.5096 21.8031 20.25C21.8031 19.9019 21.6441 19.5681 21.361 19.3219C21.0779 19.0758 20.6939 18.9375 20.2935 18.9375ZM24.984 6.9L22.1374 15.5625C21.9933 15.9934 21.6928 16.3722 21.2809 16.6425C20.8689 16.9128 20.3675 17.0601 19.8515 17.0625H9.52158C9.00549 17.0601 8.50409 16.9128 8.09215 16.6425C7.6802 16.3722 7.37977 15.9934 7.23564 15.5625L4.38899 6.91875V6.89062L3.33228 3.70312C3.32227 3.66263 3.29633 3.62644 3.25894 3.60077C3.22155 3.57511 3.17504 3.56157 3.12741 3.5625H1.31591C1.14432 3.5625 0.979766 3.50324 0.858437 3.39775C0.737107 3.29226 0.668945 3.14918 0.668945 3C0.668945 2.85082 0.737107 2.70774 0.858437 2.60225C0.979766 2.49676 1.14432 2.4375 1.31591 2.4375H3.12741C3.45637 2.43851 3.77609 2.53227 4.03856 2.70469C4.30103 2.87711 4.49209 3.11889 4.58308 3.39375L5.49962 6.1875H24.3586C24.4591 6.1875 24.5581 6.20783 24.648 6.24688C24.7378 6.28594 24.816 6.34264 24.8762 6.4125C24.9359 6.48117 24.9766 6.56083 24.9953 6.64535C25.014 6.72987 25.0102 6.81698 24.984 6.9ZM23.5068 7.3125H5.86623L8.48644 15.2531C8.54981 15.4496 8.68517 15.6227 8.872 15.7463C9.05882 15.8698 9.28689 15.9369 9.52158 15.9375H19.8515C20.0862 15.9369 20.3142 15.8698 20.501 15.7463C20.6879 15.6227 20.8232 15.4496 20.8866 15.2531L23.5068 7.3125Z" fill="white"/>
</g>
<defs>
<clipPath id="clip0_45_282">
<rect width="24.338" height="24" fill="white" transform="translate(0.479004)"/>
</clipPath>
</defs>
</svg>
