<svg width="25" height="24" viewBox="0 0 25 24" fill="none" xmlns="http://www.w3.org/2000/svg">
<path d="M12.2535 12C15.0538 12 17.324 9.76142 17.324 7C17.324 4.23858 15.0538 2 12.2535 2C9.45321 2 7.18311 4.23858 7.18311 7C7.18311 9.76142 9.45321 12 12.2535 12Z" stroke="white" stroke-width="2"/>
<path d="M17.3239 14H17.6808C18.4222 14.0002 19.138 14.2674 19.6937 14.7513C20.2494 15.2352 20.6068 15.9026 20.6987 16.628L21.0953 19.752C21.1309 20.0334 21.1055 20.3191 21.0206 20.5901C20.9358 20.8611 20.7934 21.1112 20.603 21.3238C20.4127 21.5364 20.1786 21.7066 19.9164 21.8232C19.6542 21.9398 19.3699 22.0001 19.0823 22H5.42461C5.13699 22.0001 4.85266 21.9398 4.59047 21.8232C4.32828 21.7066 4.09423 21.5364 3.90386 21.3238C3.71349 21.1112 3.57115 20.8611 3.48629 20.5901C3.40143 20.3191 3.37599 20.0334 3.41165 19.752L3.80714 16.628C3.89912 15.9022 4.2568 15.2346 4.81294 14.7506C5.36908 14.2667 6.08536 13.9997 6.82709 14H7.18303" stroke="white" stroke-width="2" stroke-linecap="round" stroke-linejoin="round"/>
</svg>
